<?xml version="1.0" encoding="UTF-8"?>
<svg id="Layer_1" data-name="Layer 1" xmlns="http://www.w3.org/2000/svg" viewBox="0 0 1920 1080">
  <defs>
    <style>
      .cls-1 {
        fill: #008cff;
      }

      .cls-2 {
        fill: #131719;
      }
    </style>
  </defs>
  <polygon class="cls-2" points="1215.03 575.45 1214.89 575.61 1215.25 575.61 1215.03 575.45"/>
  <path class="cls-2" d="M858.98,511.5c-1.64.12-3.25.42-4.81.92-1.57.5-2.99,1.18-4.28,2.05-1.52.94-2.81,2.12-3.89,3.55-.49.65-.93,1.33-1.33,2.04v-8.35h-10.3v52.21h11.7v-26.54c0-2,.24-3.86.72-5.58.48-1.73,1.24-3.27,2.25-4.62,1.01-1.36,2.33-2.46,3.94-3.34,1.61-.97,3.43-1.53,5.44-1.69,2.01-.16,3.79-.01,5.34.44v-10.87c-1.54-.26-3.14-.33-4.78-.22Z"/>
  <path class="cls-2" d="M906.31,514.07c-3.79-2.53-8.39-3.8-13.8-3.8-5.12,0-9.64,1.16-13.54,3.48-3.9,2.32-6.95,5.58-9.14,9.79-2.2,4.21-3.29,9.16-3.29,14.87,0,5.28,1.12,9.96,3.36,14.02,2.24,4.06,5.36,7.24,9.35,9.53,4,2.28,8.64,3.43,13.92,3.43s9.63-1.31,13.8-3.92c4.18-2.61,7.26-6.27,9.26-10.97l-11.5-3.48c-1.13,2.42-2.73,4.26-4.81,5.53-2.08,1.28-4.55,1.91-7.42,1.91-4.45,0-7.83-1.45-10.16-4.35-1.82-2.28-2.93-5.29-3.32-9.04h37.79c.45-6.25-.24-11.68-2.08-16.29-1.84-4.61-4.65-8.18-8.43-10.71ZM879.31,532.27c.54-3.02,1.54-5.48,3.03-7.37,2.32-2.95,5.87-4.43,10.64-4.43,4.23,0,7.31,1.3,9.28,3.92,1.4,1.85,2.3,4.48,2.72,7.88h-25.67Z"/>
  <path class="cls-2" d="M997.33,497.22h-11.61v14.5h-9.47v9.14h18.04l-8.57,7.62v14.13c0,2.97.03,5.63.1,7.98.07,2.36.69,4.66,1.89,6.91,1.35,2.48,3.33,4.3,5.95,5.44,2.61,1.15,5.57,1.76,8.87,1.84,3.3.08,6.67-.2,10.12-.84v-9.76c-3.25.48-6.16.61-8.7.39-2.54-.23-4.4-1.31-5.56-3.24-.61-1-.94-2.29-.99-3.87-.05-1.58-.07-3.42-.07-5.51v-21.08h15.32v-9.14h-15.32v-14.5Z"/>
  <path class="cls-2" d="M971.05,523.47c-.71-2.26-1.8-4.38-3.29-6.38-1.48-2-3.48-3.64-6-4.93-2.51-1.29-5.7-1.93-9.57-1.93-4.9,0-9.02,1.07-12.37,3.22-1.8,1.15-3.36,2.5-4.69,4.08h0v-5.79h-10.39v52.21h11.79v-26.83c0-3.19.35-5.81,1.07-7.86.71-2.05,1.65-3.66,2.83-4.83,1.17-1.18,2.49-2.01,3.94-2.49,1.45-.49,2.91-.73,4.4-.73,2.77,0,4.97.6,6.6,1.79,1.63,1.2,2.85,2.72,3.67,4.57s1.35,3.78,1.57,5.78.34,3.82.34,5.46v25.14h11.79v-29.15c0-1.26-.1-2.9-.31-4.91-.21-2.01-.67-4.15-1.38-6.4Z"/>
  <path class="cls-2" d="M1061.93,519.99c-1.71-3.45-4.33-5.93-7.86-7.45-3.53-1.51-7.61-2.27-12.25-2.27-6.16,0-11.05,1.34-14.67,4.01-3.63,2.68-6.09,6.22-7.38,10.64l10.64,3.34c.87-2.68,2.4-4.57,4.59-5.66,2.19-1.1,4.46-1.65,6.82-1.65,3.89,0,6.67.86,8.31,2.57,1.37,1.42,2.16,3.5,2.36,6.24-2.1.31-4.16.6-6.15.88-3.31.47-6.37.98-9.19,1.53-2.82.55-5.28,1.16-7.37,1.83-2.77.94-5.03,2.14-6.77,3.61-1.74,1.46-3.03,3.21-3.87,5.22-.83,2.01-1.25,4.28-1.25,6.79,0,2.87.67,5.5,2,7.88,1.34,2.39,3.32,4.3,5.93,5.73,2.6,1.43,5.8,2.15,9.57,2.15,4.7,0,8.63-.87,11.77-2.63,2.42-1.36,4.6-3.3,6.55-5.85v7.03h10.2v-32.05c0-2.26-.1-4.34-.29-6.26s-.76-3.8-1.69-5.63ZM1052.24,542.34c-.09,1.92-.44,3.62-1.04,5.11-.39,1.19-1.14,2.46-2.25,3.82-1.11,1.35-2.61,2.49-4.47,3.43-1.88.93-4.13,1.4-6.77,1.4-1.84,0-3.38-.29-4.62-.87-1.24-.58-2.18-1.36-2.83-2.35-.64-.98-.96-2.12-.96-3.4,0-1.13.24-2.12.75-2.95.49-.84,1.21-1.58,2.15-2.23.93-.64,2.07-1.21,3.43-1.69,1.39-.45,2.98-.86,4.78-1.23,1.81-.37,3.97-.77,6.49-1.19,1.6-.27,3.42-.56,5.43-.88,0,.88-.05,1.9-.09,3.03Z"/>
  <path class="cls-2" d="M1111.43,513.87c-3.62-2.41-7.91-3.6-12.83-3.6s-9.13,1.2-12.5,3.6c-.17.12-.34.25-.51.38v-19.93h-11.75v69.61h10.29v-3.84c.66.6,1.35,1.15,2.08,1.67,3.45,2.42,7.72,3.62,12.81,3.62,4.8,0,8.99-1.21,12.57-3.62,3.58-2.42,6.35-5.7,8.31-9.86,1.96-4.16,2.95-8.85,2.95-14.07s-1-10-3-14.14c-2-4.14-4.8-7.41-8.43-9.81ZM1109.12,546.5c-.95,2.59-2.41,4.65-4.38,6.16-1.97,1.52-4.47,2.27-7.5,2.27s-5.65-.72-7.56-2.15c-1.92-1.43-3.32-3.44-4.21-6.02-.88-2.58-1.33-5.56-1.33-8.94s.45-6.41,1.33-8.97c.89-2.56,2.27-4.56,4.14-5.99,1.87-1.43,4.29-2.15,7.25-2.15,3.13,0,5.7.76,7.74,2.29,2.03,1.53,3.53,3.59,4.49,6.18.97,2.6,1.45,5.47,1.45,8.63s-.47,6.08-1.42,8.68Z"/>
  <rect class="cls-2" x="1131.09" y="492.87" width="11.65" height="71.07"/>
  <polygon class="cls-2" points="1175.03 549.08 1160.45 511.72 1148.32 511.72 1169.42 563.57 1160.84 587.13 1171.76 587.13 1200.86 511.72 1189.21 511.72 1175.03 549.08"/>
  <polygon class="cls-1" points="732.96 509.08 704.75 525.38 704.75 575.61 732.99 559.64 732.99 509.25 765.27 528.09 765.27 575.5 793.51 559.52 793.51 512.65 759.88 493.17 732.96 509.08"/>
  <polygon class="cls-1" points="744.05 564.21 751.65 568.5 751.65 555.13 744.05 550.61 744.05 564.21"/>
</svg>