<?xml version="1.0" encoding="UTF-8" standalone="no"?>
<svg
   xmlns:dc="http://purl.org/dc/elements/1.1/"
   xmlns:cc="http://creativecommons.org/ns#"
   xmlns:rdf="http://www.w3.org/1999/02/22-rdf-syntax-ns#"
   xmlns:svg="http://www.w3.org/2000/svg"
   xmlns="http://www.w3.org/2000/svg"
   xmlns:sodipodi="http://sodipodi.sourceforge.net/DTD/sodipodi-0.dtd"
   xmlns:inkscape="http://www.inkscape.org/namespaces/inkscape"
   version="1.1"
   id="svg2"
   xml:space="preserve"
   width="2186.6001"
   height="556.02667"
   viewBox="0 0 2186.6001 556.02667"
   sodipodi:docname="McMakler_Energieausweis_Logo_RGB.eps"><metadata
     id="metadata8"><rdf:RDF><cc:Work
         rdf:about=""><dc:format>image/svg+xml</dc:format><dc:type
           rdf:resource="http://purl.org/dc/dcmitype/StillImage" /></cc:Work></rdf:RDF></metadata><defs
     id="defs6"><clipPath
       clipPathUnits="userSpaceOnUse"
       id="clipPath48"><path
         d="M 6852.4,1594.34 H 1217.6 v 164.4 h 5505.9 c 10.3,-40.1 30.7,-77.2 61,-110.2 18.79,-20.5 41.5,-38.6 67.9,-54.2 z"
         id="path46" /></clipPath><linearGradient
       x1="0"
       y1="0"
       x2="1"
       y2="0"
       gradientUnits="userSpaceOnUse"
       gradientTransform="matrix(5634.8,0,0,-5634.8,1217.6,1676.54)"
       spreadMethod="pad"
       id="linearGradient54"><stop
         style="stop-opacity:1;stop-color:#8dca4b"
         offset="0"
         id="stop50" /><stop
         style="stop-opacity:1;stop-color:#f6e631"
         offset="1"
         id="stop52" /></linearGradient><clipPath
       clipPathUnits="userSpaceOnUse"
       id="clipPath64"><path
         d="m 15179.3,1758.74 v -164.4 H 7772.4 c 39,22.1 71.4,50.3 96.5,84.2 17.7,23.7 30.8,50.6 39.7,80.2 z"
         id="path62" /></clipPath><linearGradient
       x1="0"
       y1="0"
       x2="1"
       y2="0"
       gradientUnits="userSpaceOnUse"
       gradientTransform="matrix(-7406.9,0,0,7406.9,15179.3,1676.54)"
       spreadMethod="pad"
       id="linearGradient72"><stop
         style="stop-opacity:1;stop-color:#e22d40"
         offset="0"
         id="stop66" /><stop
         style="stop-opacity:1;stop-color:#f6e631"
         offset="0.716489"
         id="stop68" /><stop
         style="stop-opacity:1;stop-color:#f6e631"
         offset="1"
         id="stop70" /></linearGradient></defs><sodipodi:namedview
     pagecolor="#ffffff"
     bordercolor="#666666"
     borderopacity="1"
     objecttolerance="10"
     gridtolerance="10"
     guidetolerance="10"
     inkscape:pageopacity="0"
     inkscape:pageshadow="2"
     inkscape:window-width="640"
     inkscape:window-height="480"
     id="namedview4" /><g
     id="g10"
     inkscape:groupmode="layer"
     inkscape:label="ink_ext_XXXXXX"
     transform="matrix(1.3333333,0,0,-1.3333333,0,556.02667)"><g
       id="g12"
       transform="scale(0.1)"><path
         d="m 2437.82,3046.2 v -1124 h -238.51 v 725.1 h -0.79 l -288.3,-719.6 h -162.4 l -1.2,3.1 -287.1,719.21 h -0.81 V 1922.2 h -238.49 v 1124 h 298.8 l 1.3,-3.1 305.49,-745.3 h 6.4 l 306.81,748.4 h 298.8"
         style="fill:#196470;fill-opacity:1;fill-rule:nonzero;stroke:none"
         id="path14" /><path
         d="m 4292.32,2126.4 v -204.2 h -762.8 v 1124 h 760.59 V 2842 h -515.1 v -255.4 h 476.51 v -204.2 h -476.51 v -256 h 517.31"
         style="fill:#196470;fill-opacity:1;fill-rule:nonzero;stroke:none"
         id="path16" /><path
         d="M 5235.91,2459.21 V 1922.2 h -241.79 v 495.71 c 0.4,49.6 -12.41,88.8 -37.81,116.49 -25.4,27.6 -60.99,41.6 -105.7,41.6 -30.1,0 -56.99,-6.5 -79.89,-19.4 -22.81,-12.9 -40.8,-31.9 -53.51,-56.4 -12.79,-24.79 -19.5,-55.1 -19.79,-90 v -488 h -241.81 v 845.5 h 230.91 v -147.4 h 1.3 c 18.99,47.9 50.49,86.5 93.7,114.8 44.2,28.9 98.4,43.5 161.09,43.5 58.6,0 110.5,-13 154.31,-38.8 43.69,-25.7 78.19,-62.9 102.5,-110.5 24.2,-47.5 36.49,-104.69 36.49,-170.09"
         style="fill:#196470;fill-opacity:1;fill-rule:nonzero;stroke:none"
         id="path18" /><path
         d="m 10874,2767.7 v -845.5 h -232.5 l -0.3,151.8 c -19.3,-48.3 -51,-87.69 -94.4,-117.2 -44.4,-30.09 -99,-45.4 -162.5,-45.4 -56.5,0 -106.9,13 -150,38.7 -43,25.8 -77.1,62.9 -101.1,110.31 -24,47.29 -36.4,104.6 -36.7,170.29 v 537 h 241.7 v -495.59 c 0.3,-47.81 13.3,-86.01 38.4,-113.61 25,-27.4 59.1,-41.3 101.3,-41.3 26.9,0 52.5,6.3 76,18.7 23.3,12.3 42.5,31 57,55.5 14.5,24.5 21.7,55.2 21.3,91.51 v 484.79 h 241.8"
         style="fill:#196470;fill-opacity:1;fill-rule:nonzero;stroke:none"
         id="path20" /><path
         d="m 11765.4,2186.1 c 0,-55.6 -16.5,-105.1 -49.2,-147.2 -32.4,-41.79 -77.4,-74.8 -133.6,-98.1 -56.1,-23.1 -121.4,-34.9 -194.2,-34.9 -111.1,0 -201,23.6 -267,70.3 -66.3,46.8 -105.7,111.6 -117.1,192.4 l -0.8,5.4 237.7,12.5 0.9,-4.3 c 6.5,-32.19 22.7,-57 47.9,-73.8 25.5,-16.9 58.7,-25.49 98.9,-25.49 39.5,0 71.6,7.69 95.5,22.89 23.6,14.9 35.2,33.6 35.5,57 -0.3,19.5 -8.4,35.2 -24.7,47.9 -16.7,13.11 -43.1,23.3 -78.4,30.4 l -144.7,28.8 c -82.2,16.41 -144.3,45.51 -184.5,86.3 -40.5,41 -61.1,93.9 -61.1,157.4 0,54.5 15.1,102.2 44.8,141.7 29.6,39.4 71.9,70.11 125.7,91.41 53.5,21.2 116.9,31.89 188.7,31.89 106.1,0 191,-22.8 252.3,-67.9 61.6,-45.2 98.1,-107.7 108.3,-185.6 l 0.7,-5.3 -221.8,-13.6 -0.8,4.3 c -3.5,17.2 -11,33 -22.4,47.01 -11.4,13.99 -26.6,25.4 -45.3,33.99 -18.6,8.51 -41.3,12.8 -67.2,12.8 -34.8,0 -64.5,-7.3 -88.3,-21.79 -23.2,-14.21 -34.6,-32.5 -34.6,-55.8 0,-18.71 7.3,-34.01 22.3,-46.91 15.2,-13.09 42.1,-23.9 79.9,-32 l 151.1,-30.5 c 81.8,-16.8 143.7,-44.3 184.1,-81.7 40.8,-37.8 61.4,-88.09 61.4,-149.5"
         style="fill:#196470;fill-opacity:1;fill-rule:nonzero;stroke:none"
         id="path22" /><path
         d="m 13061.1,2767.7 -1.7,-6.3 -227.8,-839.2 h -253 l -143.6,525.5 h -2.6 l -143.6,-525.5 h -252.5 l -230,845.5 h 244.9 l 0.9,-3.8 128.4,-556.9 134.8,560.7 h 237.9 l 136.7,-556.3 126.8,556.3 h 244.4"
         style="fill:#196470;fill-opacity:1;fill-rule:nonzero;stroke:none"
         id="path24" /><path
         d="m 13345.2,2437.4 c 1.9,27.21 9.4,52.21 22,74.9 15,26.3 35.4,47.2 61.7,63 26.2,15.6 56.5,23.51 90.7,23.51 33.1,0 61.8,-7.21 86.6,-21.51 24.8,-14.1 44.2,-33.7 58.2,-58.7 13.3,-23.7 20.3,-50.6 21.1,-81.2 z m 568.6,-85 c 0,71.5 -10,134.2 -30.3,188.1 -20.1,53.71 -48.4,98.6 -84.7,134.3 -36.2,35.61 -78.6,62.4 -126.9,80.3 -48.2,17.81 -100.2,26.7 -156,26.7 -82.8,0 -155,-18.3 -216.6,-55.09 -61.6,-36.81 -109.3,-88.21 -143.1,-153.8 -34,-65.8 -50.6,-142.11 -50.6,-228.7 0,-88.71 16.6,-165.91 50.6,-231.11 33.8,-65.19 82.1,-115.7 144.8,-151.2 47.8,-27.1 101.1,-42.5 155.3,-49.2 24.7,-2.9 50.1,-4.6 75.5,-4.6 30.9,0 61.9,2.4 91.6,8 104.1,19.2 208.5,78.3 258.1,175.3 9.9,19.2 17.4,39.3 23.6,59.8 l 1.7,5.6 -220.3,32.41 -1.8,-3.61 v -0.3 c -7.8,-20.29 -18.8,-37.3 -33.4,-51.3 -14.8,-13.99 -32.4,-24.5 -53.2,-31.6 -20.9,-6.99 -43.8,-10.5 -69.2,-10.5 -38,0 -70.6,7.9 -98.1,23.7 -27.4,15.9 -48.6,38.3 -63.6,67.7 -14.5,28.1 -22.1,61.5 -22.6,100.4 h 569.2 v 68.7"
         style="fill:#196470;fill-opacity:1;fill-rule:nonzero;stroke:none"
         id="path26" /><path
         d="m 14301.6,2987.91 c 0,-33.61 -12.9,-62.71 -38.3,-86.6 -25.3,-23.8 -56.2,-35.9 -91.8,-35.9 -35.6,0 -66.6,12.1 -92.1,35.9 -25.6,23.89 -38.6,52.99 -38.6,86.6 0,33.19 13,62.19 38.6,86.09 25.5,23.8 56.3,35.9 91.5,35.9 36,0 67.1,-12.1 92.4,-36 25.4,-23.8 38.3,-52.8 38.3,-85.99"
         style="fill:#196470;fill-opacity:1;fill-rule:nonzero;stroke:none"
         id="path28" /><path
         d="m 14291.2,2767.7 v -845.5 h -241.7 v 845.5 h 241.7"
         style="fill:#196470;fill-opacity:1;fill-rule:nonzero;stroke:none"
         id="path30" /><path
         d="m 15181.9,2186.1 c 0,-55.6 -16.5,-105.1 -49.1,-147.2 -32.5,-41.79 -77.5,-74.8 -133.7,-98.1 -56.1,-23.1 -121.4,-34.9 -194.2,-34.9 -111.1,0 -201,23.6 -267,70.3 -66.3,46.8 -105.7,111.6 -117.1,192.4 l -0.8,5.4 237.7,12.5 0.9,-4.3 c 6.5,-32.19 22.7,-57 47.9,-73.8 25.5,-16.9 58.8,-25.49 98.9,-25.49 39.5,0 71.6,7.69 95.5,22.89 23.6,14.9 35.2,33.6 35.5,57 -0.3,19.5 -8.4,35.2 -24.7,47.9 -16.7,13.11 -43.1,23.3 -78.4,30.4 l -144.7,28.8 c -82.2,16.41 -144.3,45.51 -184.5,86.2 -40.5,41.1 -61,94 -61,157.5 0,54.5 15,102.2 44.7,141.7 29.7,39.4 71.9,70.11 125.7,91.41 53.5,21.2 116.9,31.89 188.7,31.89 106.1,0 191,-22.8 252.3,-67.9 61.6,-45.2 98.1,-107.7 108.4,-185.6 l 0.7,-5.3 -221.9,-13.6 -0.8,4.3 c -3.5,17.2 -11,33 -22.4,47.01 -11.4,13.99 -26.6,25.4 -45.3,33.99 -18.6,8.51 -41.3,12.8 -67.2,12.8 -34.8,0 -64.5,-7.3 -88.3,-21.79 -23.2,-14.21 -34.5,-32.5 -34.5,-55.8 0,-18.61 7.2,-34.01 22.2,-46.91 15.2,-13.09 42.1,-23.9 79.9,-32 l 151.1,-30.5 c 81.8,-16.8 143.7,-44.3 184.1,-81.7 40.8,-37.8 61.4,-88.09 61.4,-149.5"
         style="fill:#196470;fill-opacity:1;fill-rule:nonzero;stroke:none"
         id="path32" /><path
         d="m 3154.26,2238.89 226.02,-26.6 -0.5,-4.99 c -6.2,-53.98 -23.1,-102.47 -50.28,-144.95 -31.6,-49.18 -74.97,-87.57 -130.16,-115.17 -55.18,-27.58 -120.36,-41.28 -195.23,-41.28 -86.27,0 -160.84,18.3 -223.23,55.39 -62.27,36.78 -110.06,88.27 -143.24,153.94 -33.29,65.78 -49.78,141.25 -49.78,226.42 0,86.17 16.68,162.25 50.18,227.82 33.68,65.38 81.57,116.77 143.64,153.75 62.18,36.88 136.16,55.38 221.23,55.38 73.58,0 138.16,-13.4 193.73,-40.28 55.48,-26.9 99.47,-64.58 131.96,-113.26 28.48,-42.79 45.78,-92.08 51.68,-147.86 l 0.6,-5 -10.59,-1.09 -216.03,-22.89 -0.7,4.7 c -6.1,40.88 -21.8,73.37 -47.19,98.06 -25.28,24.59 -58.17,36.89 -99.56,36.99 -34.99,0 -65.08,-9.4 -90.97,-28.19 -25.69,-18.7 -45.88,-46.08 -60.58,-82.37 -14.49,-36.19 -21.9,-80.38 -21.9,-132.46 0,-52.88 7.21,-97.56 21.7,-134.15 14.4,-36.69 34.59,-64.28 60.48,-83.27 26.09,-18.89 56.28,-28.39 91.27,-28.39 25.79,0 48.58,5.3 69.28,15.79 20.39,10.5 37.28,25.69 50.78,45.98 13.5,20.1 22.49,44.49 26.69,73.18 l 0.7,4.8"
         style="fill:#196470;fill-opacity:1;fill-rule:nonzero;stroke:none"
         id="path34" /><path
         d="m 5606.21,2434.65 c 1.91,27.21 9.41,52.21 22.1,74.91 15,26.3 35.21,47.2 61.61,63 26.1,15.6 56.5,23.5 90.7,23.5 33.09,0 61.8,-7.21 86.6,-21.5 24.8,-14.1 44.2,-33.7 58.2,-58.7 13.29,-23.71 20.39,-50.6 21,-81.21 z m 568.51,-85 c 0,71.51 -10,134.2 -30.2,188.11 -20.2,53.69 -48.5,98.59 -84.8,134.3 -36.2,35.6 -78.51,62.4 -126.8,80.3 -48.2,17.8 -100.31,26.7 -156.1,26.7 -82.71,0 -155,-18.3 -216.5,-55.11 -61.61,-36.8 -109.3,-88.19 -143.1,-153.79 -33.91,-65.8 -50.61,-142.11 -50.61,-228.71 0,-88.69 16.7,-165.9 50.61,-231.09 33.8,-65.2 82.1,-115.71 144.8,-151.2 47.7,-27.1 101.1,-42.5 155.2,-49.2 24.8,-2.9 50.2,-4.6 75.6,-4.6 30.89,0 61.9,2.4 91.5,8 104.2,19.2 208.6,78.3 258.19,175.3 9.91,19.2 17.41,39.3 23.51,59.8 l 1.8,5.6 -220.31,32.39 -1.7,-3.59 v -0.3 c -7.89,-20.31 -18.99,-37.3 -33.59,-51.3 -14.71,-14.01 -32.3,-24.5 -53.11,-31.61 -20.8,-6.99 -43.79,-10.49 -69.19,-10.49 -38.1,0 -70.6,7.9 -98.1,23.7 -27.5,15.9 -48.51,38.3 -63.51,67.69 -14.6,28.11 -22.29,61.51 -22.69,100.41 h 569.1 v 68.69"
         style="fill:#196470;fill-opacity:1;fill-rule:nonzero;stroke:none"
         id="path36" /><path
         d="m 8515.72,2435.66 c 1.89,27.2 9.39,52.2 22.1,74.89 15,26.31 35.3,47.21 61.7,63.01 26.1,15.6 56.39,23.5 90.59,23.5 33.11,0 61.91,-7.2 86.6,-21.51 24.9,-14.1 44.2,-33.69 58.3,-58.69 13.21,-23.7 20.31,-50.6 21.01,-81.2 z m 568.6,-85 c 0,71.49 -10,134.2 -30.21,188.1 -20.19,53.7 -48.49,98.6 -84.79,134.29 -36.2,35.61 -78.6,62.41 -126.81,80.31 -48.3,17.8 -100.29,26.7 -156.09,26.7 -82.71,0 -155,-18.3 -216.6,-55.1 -61.6,-36.8 -109.3,-88.2 -143.11,-153.8 -33.89,-65.8 -50.59,-142.1 -50.59,-228.7 0,-88.7 16.7,-165.9 50.59,-231.11 33.81,-65.19 82.11,-115.69 144.9,-151.19 47.71,-27.11 101,-42.5 155.21,-49.2 24.7,-2.91 50.1,-4.61 75.6,-4.61 30.8,0 61.79,2.41 91.5,8.01 104.1,19.2 208.59,78.3 258.2,175.29 9.8,19.2 17.4,39.3 23.5,59.81 l 1.8,5.6 -220.3,32.4 -1.8,-3.61 v -0.29 c -7.81,-20.3 -18.9,-37.3 -33.5,-51.31 -14.7,-13.99 -32.4,-24.49 -53.2,-31.59 -20.8,-7 -43.8,-10.5 -69.1,-10.5 -38.1,0 -70.7,7.89 -98.2,23.69 -27.4,15.9 -48.5,38.3 -63.5,67.71 -14.6,28.09 -22.2,61.49 -22.71,100.4 h 569.21 v 68.7"
         style="fill:#196470;fill-opacity:1;fill-rule:nonzero;stroke:none"
         id="path38" /><path
         d="m 9692.72,2225.36 c 0,-28.5 -7.1,-53.8 -21.51,-76.2 -14.39,-22.5 -34.19,-40.21 -59.6,-53.5 -25.29,-13.2 -54.49,-19.8 -87.99,-19.8 -34.8,0 -63,7.99 -84.91,23.79 -21.69,15.71 -32.5,37.71 -32.59,68.11 0.09,20.8 5.4,37.9 15.9,51.5 10.59,13.9 25.59,25.1 45.4,33.6 19.8,8.49 43.1,14.8 70,18.7 12.69,1.8 26.9,3.9 42.5,6.2 15.6,2.4 31.29,5.2 47,8.3 15.69,3.1 29.9,6.5 42.6,10.39 9,2.71 16.69,5.7 23.2,9.01 z m 210.69,395.5 v 0.1 c -19.49,36.29 -46.29,66.29 -80.1,89.5 -33.79,23.2 -72.19,40.4 -115.29,51.3 -43.1,11 -88.1,16.6 -134.9,16.6 -67.31,0 -126.51,-10.2 -177.8,-30.6 -51.3,-20.4 -93.3,-49.5 -125.8,-87.4 -27.01,-31.51 -48.5,-73.6 -61.7,-121.3 l -1.5,-5.5 220.8,-31.41 1.19,4.2 c 7.6,26.51 23.3,48.4 47.11,66.31 23.6,17.4 55.6,26.4 96.6,26.4 38.79,0 67.99,-9.2 88.4,-27.1 20.39,-17.8 30.7,-42.7 30.7,-76.1 v -3.3 c -0.1,-16.6 -5.9,-27.91 -18,-36.21 -6.1,-4.1 -14.5,-7.89 -24.9,-11.19 -10.5,-3.3 -23,-6.1 -37.7,-8.4 -29.71,-4.51 -68.7,-9.3 -117.3,-14.3 -41.61,-4.1 -81.4,-11.01 -119.11,-20.9 -37.99,-9.9 -71.99,-24.6 -101.89,-44.1 -30.1,-19.7 -53.81,-45.7 -71.31,-78 -17.6,-32.5 -26.19,-72.31 -26.19,-119.4 0,-55.8 12.2,-102.91 37.1,-140.7 24.5,-37.6 58.29,-66 100.79,-85 42.4,-19 90.7,-28.5 144.61,-28.5 41.8,0 78.8,5.59 111.09,16.9 32.01,11.19 59.61,26.89 82.6,47.2 21.41,18.7 38.81,40.4 52.11,64.79 v -113.09 h 229.9 v 568.7 c 0,50.3 -9.8,93.9 -29.51,130.5"
         style="fill:#196470;fill-opacity:1;fill-rule:nonzero;stroke:none"
         id="path40" /><g
         id="g42"><g
           id="g44"
           clip-path="url(#clipPath48)"><path
             d="M 6852.4,1594.34 H 1217.6 v 164.4 h 5505.9 c 10.3,-40.1 30.7,-77.2 61,-110.2 18.79,-20.5 41.5,-38.6 67.9,-54.2"
             style="fill:url(#linearGradient54);fill-opacity:1;fill-rule:nonzero;stroke:none"
             id="path56" /></g></g><g
         id="g58"><g
           id="g60"
           clip-path="url(#clipPath64)"><path
             d="m 15179.3,1758.74 v -164.4 H 7772.4 c 39,22.1 71.4,50.3 96.5,84.2 17.7,23.7 30.8,50.6 39.7,80.2 h 7270.7"
             style="fill:url(#linearGradient72);fill-opacity:1;fill-rule:nonzero;stroke:none"
             id="path74" /></g></g><path
         d="m 6831.92,2770.41 v -216.2 l -6.51,1.89 c -10.4,3.2 -25.3,6.1 -44.29,8.6 -19.1,2.5 -36.6,3.7 -52.1,3.7 -33.11,0 -62.9,-7.2 -88.7,-21.4 -25.8,-14.2 -46.41,-34.2 -61.21,-59.3 -14.9,-25.19 -22.4,-54.79 -22.4,-87.8 v -477.7 h -241.79 v 845.5 h 234.69 V 2622 c 15.6,50.91 41.6,90.2 77.41,116.7 36.6,27.2 79.39,41 127,41 11.59,0 24.39,-0.7 38.09,-2.19 13.61,-1.51 25.71,-3.61 36,-6.11 l 3.81,-0.99"
         style="fill:#196470;fill-opacity:1;fill-rule:nonzero;stroke:none"
         id="path76" /><path
         d="m 11312.9,1425.81 h 78.7 l 83.1,-202.78 h 3.6 l 83.1,202.78 h 78.7 V 1124 h -61.9 v 196.44 h -2.5 l -78.1,-194.97 h -42.2 l -78.1,195.71 h -2.5 V 1124 h -61.9 v 301.81"
         style="fill:#196471;fill-opacity:1;fill-rule:nonzero;stroke:none"
         id="path78" /><path
         d="m 11814.9,1119.58 c -23.2,0 -43.1,4.94 -59.7,14.81 -16.7,9.87 -29.5,23.6 -38.4,41.19 -8.9,17.59 -13.3,37.82 -13.3,60.72 0,23.18 4.5,43.55 13.5,61.07 9,17.54 21.8,31.25 38.4,41.12 16.6,9.88 36.3,14.81 59.2,14.81 19.8,0 37.1,-3.59 51.9,-10.75 14.8,-7.18 26.6,-17.25 35.2,-30.22 8.7,-12.97 13.4,-28.19 14.3,-45.67 h -59.2 c -1.7,11.3 -6.1,20.4 -13.2,27.32 -7.2,6.93 -16.5,10.39 -28,10.39 -9.7,0 -18.2,-2.63 -25.4,-7.88 -7.2,-5.25 -12.8,-12.89 -16.8,-22.91 -4.1,-10.02 -6.1,-22.16 -6.1,-36.4 0,-14.44 2,-26.72 6,-36.84 4,-10.12 9.6,-17.83 16.9,-23.14 7.2,-5.3 15.7,-7.96 25.4,-7.96 7.2,0 13.7,1.48 19.4,4.43 5.8,2.94 10.5,7.23 14.3,12.89 3.8,5.64 6.3,12.45 7.5,20.41 h 59.2 c -1,-17.3 -5.7,-32.49 -14.1,-45.61 -8.4,-13.12 -19.9,-23.36 -34.7,-30.73 -14.7,-7.36 -32.1,-11.05 -52.3,-11.05"
         style="fill:#196471;fill-opacity:1;fill-rule:nonzero;stroke:none"
         id="path80" /><path
         d="m 11979.1,1425.81 h 78.7 l 83.1,-202.78 h 3.5 l 83.2,202.78 h 78.7 V 1124 h -61.9 v 196.44 h -2.5 l -78.1,-194.97 h -42.2 l -78.1,195.71 h -2.5 V 1124 h -61.9 v 301.81"
         style="fill:#196471;fill-opacity:1;fill-rule:nonzero;stroke:none"
         id="path82" /><path
         d="m 12462.2,1163.05 c 9.2,0 17.4,1.85 24.4,5.53 7.1,3.68 12.7,8.67 16.7,14.96 4,6.28 6,13.41 6,21.37 v 24.02 c -1.9,-1.28 -4.6,-2.43 -8,-3.46 -3.4,-1.04 -7.2,-1.97 -11.4,-2.81 -4.2,-0.83 -8.5,-1.57 -12.7,-2.2 -4.2,-0.65 -8,-1.21 -11.5,-1.7 -7.3,-1.08 -13.8,-2.8 -19.3,-5.16 -5.5,-2.35 -9.8,-5.53 -12.8,-9.5 -3,-3.99 -4.6,-8.92 -4.6,-14.82 0,-8.54 3.1,-15.06 9.4,-19.52 6.2,-4.47 14.2,-6.71 23.8,-6.71 z m -18,-43.33 c -14.4,0 -27.3,2.54 -38.6,7.6 -11.3,5.06 -20.2,12.57 -26.7,22.54 -6.6,9.97 -9.8,22.43 -9.8,37.36 0,12.58 2.3,23.14 6.9,31.69 4.6,8.55 10.9,15.42 18.8,20.63 8,5.2 17.1,9.14 27.2,11.79 10.2,2.65 20.9,4.52 32.1,5.6 13.1,1.38 23.8,2.68 31.8,3.91 8.1,1.23 13.9,3.06 17.6,5.52 3.6,2.45 5.4,6.09 5.4,10.91 v 0.88 c 0,9.33 -2.9,16.54 -8.8,21.65 -5.8,5.11 -14.1,7.67 -24.8,7.67 -11.3,0 -20.3,-2.48 -27,-7.44 -6.6,-4.97 -11.1,-11.18 -13.2,-18.64 l -58.1,4.71 c 3,13.75 8.8,25.66 17.4,35.74 8.7,10.07 19.8,17.83 33.5,23.28 13.7,5.45 29.6,8.18 47.7,8.18 12.6,0 24.6,-1.47 36.2,-4.42 11.5,-2.95 21.8,-7.52 30.8,-13.71 9,-6.19 16.1,-14.12 21.3,-23.8 5.2,-9.67 7.8,-21.25 7.8,-34.69 V 1124 h -59.6 v 31.39 h -1.7 c -3.7,-7.07 -8.5,-13.28 -14.6,-18.65 -6.1,-5.35 -13.4,-9.53 -22,-12.52 -8.5,-2.99 -18.4,-4.5 -29.6,-4.5"
         style="fill:#196471;fill-opacity:1;fill-rule:nonzero;stroke:none"
         id="path84" /><path
         d="m 12855.8,1123.95 h -73.5 l -61.7,91.41 -17,-19.5 v -71.91 h -62.8 v 301.91 h 62.8 v -161.4 h 3.3 l 72.6,85.9 h 72 l -83.9,-98.11 88.2,-128.3"
         style="fill:#196471;fill-opacity:1;fill-rule:nonzero;stroke:none"
         id="path86" /><path
         d="M 12964.8,1425.81 V 1124 h -62.8 v 301.81 h 62.8"
         style="fill:#196471;fill-opacity:1;fill-rule:nonzero;stroke:none"
         id="path88" /><path
         d="m 13092.9,1282.36 c 4.2,7.29 9.9,13.1 17.2,17.5 7.3,4.4 15.7,6.59 25.3,6.59 9.1,0 17.1,-1.99 24.1,-5.99 6.9,-4.01 12.3,-9.4 16.2,-16.4 4,-7 5.9,-15 5.9,-24 h -94.9 c 0.4,8.1 2.4,15.6 6.2,22.3 z m 147.8,-61.2 v 17.2 c 0,19.3 -2.7,36.1 -8.1,50.49 -5.4,14.41 -12.9,26.31 -22.6,35.9 -9.7,9.51 -21,16.6 -33.9,21.41 -12.9,4.8 -26.8,7.1 -41.8,7.1 -22.2,0 -41.5,-4.9 -58,-14.7 -16.4,-9.8 -29.2,-23.5 -38.2,-41.1 -9,-17.6 -13.6,-38 -13.6,-61.3 0,-23.91 4.6,-44.5 13.6,-62 9,-17.4 21.9,-30.9 38.7,-40.31 16.7,-9.49 36.8,-14.29 60,-14.29 18.7,0 35.2,2.9 49.5,8.6 14.3,5.79 26,13.8 35.1,24.2 9,10.4 15.1,22.5 18,36.49 l -58,3.81 c -2.2,-5.7 -5.4,-10.51 -9.5,-14.4 -4.1,-4 -9.1,-6.91 -14.9,-8.9 -5.8,-1.9 -12.2,-2.91 -19.1,-2.91 -10.5,0 -19.6,2.21 -27.3,6.6 -7.7,4.41 -13.6,10.71 -17.8,18.91 -4.1,8.1 -6.2,17.79 -6.2,29 v 0.2 h 154.1"
         style="fill:#196471;fill-opacity:1;fill-rule:nonzero;stroke:none"
         id="path90" /><path
         d="m 13301.5,1124 v 226.36 h 60.9 v -39.5 h 2.3 c 4.2,14.05 11.1,24.68 20.8,31.9 9.7,7.23 20.9,10.84 33.6,10.84 3.2,0 6.5,-0.21 10.2,-0.6 3.6,-0.39 6.8,-0.92 9.6,-1.62 v -55.7 c -3,0.88 -7.1,1.67 -12.3,2.35 -5.2,0.7 -9.9,1.04 -14.3,1.04 -9.2,0 -17.4,-1.99 -24.6,-5.97 -7.3,-3.98 -13,-9.5 -17.1,-16.57 -4.2,-7.07 -6.3,-15.22 -6.3,-24.46 V 1124 h -62.8"
         style="fill:#196471;fill-opacity:1;fill-rule:nonzero;stroke:none"
         id="path92" /><path
         d="m 13877.8,1285.55 v -38.09 c 0,-26.5 -5.6,-49.3 -16.8,-68.3 -11.2,-19 -26.6,-33.61 -46.3,-43.9 -19.6,-10.2 -42.1,-15.4 -67.5,-15.4 -28.3,0 -53.1,6.3 -74.5,18.8 -21.5,12.5 -38.1,30.4 -50.1,53.49 -11.9,23.11 -17.9,50.61 -17.9,82.5 0,24.41 3.6,46.31 10.7,65.51 7.1,19.2 17.1,35.39 30,48.79 12.9,13.41 27.8,23.51 44.9,30.51 17.1,6.99 35.7,10.5 55.6,10.5 17.1,0 33,-2.5 47.7,-7.5 14.8,-4.9 27.9,-11.91 39.3,-21.01 11.5,-8.99 20.8,-19.69 28.1,-32.19 7.3,-12.4 11.9,-26.1 14,-41 h -64.8 c -2.1,7.2 -5,13.5 -8.7,19.1 -3.8,5.5 -8.3,10.2 -13.7,14.09 -5.3,3.91 -11.4,6.91 -18.2,8.91 -6.9,2.1 -14.4,3.1 -22.7,3.1 -15.4,0 -28.9,-3.81 -40.6,-11.5 -11.6,-7.6 -20.7,-18.7 -27.2,-33.3 -6.4,-14.6 -9.7,-32.4 -9.7,-53.5 0,-21 3.2,-38.9 9.6,-53.6 6.4,-14.7 15.4,-26.01 27.1,-33.7 11.7,-7.7 25.5,-11.51 41.4,-11.51 14.5,0 26.8,2.5 37.1,7.71 10.3,5.2 18.1,12.5 23.6,21.9 5.1,8.9 7.8,19.5 8.1,31.5 h -64.8 v 48.09 h 126.3"
         style="fill:#196471;fill-opacity:1;fill-rule:nonzero;stroke:none"
         id="path94" /><path
         d="m 13945.5,1124 v 226.36 h 60.8 v -39.5 h 2.4 c 4.1,14.05 11,24.68 20.8,31.9 9.7,7.23 20.9,10.84 33.6,10.84 3.1,0 6.5,-0.21 10.1,-0.6 3.7,-0.39 6.9,-0.92 9.6,-1.62 v -55.7 c -2.9,0.88 -7,1.67 -12.2,2.35 -5.2,0.7 -10,1.04 -14.3,1.04 -9.3,0 -17.5,-1.99 -24.7,-5.97 -7.2,-3.98 -12.9,-9.5 -17.1,-16.57 -4.2,-7.07 -6.3,-15.22 -6.3,-24.46 V 1124 h -62.7"
         style="fill:#196471;fill-opacity:1;fill-rule:nonzero;stroke:none"
         id="path96" /><path
         d="m 14277,1220.38 v 129.98 h 62.7 V 1124 h -60.2 v 41.11 h -2.4 c -5.1,-13.26 -13.6,-23.92 -25.4,-31.97 -11.9,-8.06 -26.3,-12.09 -43.3,-12.09 -15.1,0 -28.4,3.44 -39.9,10.32 -11.5,6.88 -20.5,16.65 -26.9,29.33 -6.4,12.67 -9.7,27.85 -9.8,45.54 v 144.12 h 62.8 v -132.92 c 0.1,-13.37 3.7,-23.93 10.7,-31.69 7.1,-7.77 16.6,-11.64 28.5,-11.64 7.5,0 14.6,1.74 21.2,5.23 6.6,3.49 11.9,8.66 16,15.55 4.1,6.87 6.1,15.37 6,25.49"
         style="fill:#196471;fill-opacity:1;fill-rule:nonzero;stroke:none"
         id="path98" /><path
         d="m 14471.2,1237.18 c 0,-13.46 1.8,-25.2 5.6,-35.22 3.7,-10.02 9.1,-17.81 16.2,-23.36 7.1,-5.55 15.6,-8.32 25.8,-8.32 10.2,0 18.8,2.82 25.9,8.47 7.1,5.65 12.5,13.5 16.1,23.58 3.7,10.07 5.6,21.69 5.6,34.85 0,13.07 -1.8,24.56 -5.5,34.49 -3.6,9.92 -9,17.67 -16,23.27 -7.1,5.6 -15.8,8.41 -26.1,8.41 -10.3,0 -18.9,-2.71 -25.9,-8.11 -7,-5.41 -12.4,-13.07 -16.1,-22.99 -3.8,-9.92 -5.6,-21.61 -5.6,-35.07 z m -61.5,-198.06 v 311.24 h 61.9 v -38.03 h 2.8 c 2.8,6.09 6.8,12.31 12,18.64 5.3,6.34 12.2,11.64 20.7,15.92 8.5,4.28 19,6.41 31.7,6.41 16.5,0 31.8,-4.3 45.7,-12.89 14,-8.6 25.1,-21.52 33.5,-38.76 8.3,-17.25 12.5,-38.82 12.5,-64.76 0,-25.25 -4.1,-46.55 -12.2,-63.89 -8.1,-17.34 -19.1,-30.45 -33,-39.35 -13.9,-8.89 -29.4,-13.33 -46.6,-13.33 -12.2,0 -22.6,2.01 -31.1,6.03 -8.5,4.04 -15.4,9.12 -20.8,15.26 -5.4,6.14 -9.5,12.35 -12.4,18.64 h -1.9 v -121.13 h -62.8"
         style="fill:#196471;fill-opacity:1;fill-rule:nonzero;stroke:none"
         id="path100" /><path
         d="m 14753,1237.18 c 0,-13.46 1.9,-25.2 5.6,-35.22 3.8,-10.02 9.2,-17.81 16.3,-23.36 7,-5.55 15.6,-8.32 25.7,-8.32 10.3,0 18.9,2.82 26,8.47 7.1,5.65 12.4,13.5 16.1,23.58 3.7,10.07 5.5,21.69 5.5,34.85 0,13.07 -1.8,24.56 -5.4,34.49 -3.6,9.92 -9,17.67 -16.1,23.27 -7,5.6 -15.7,8.41 -26.1,8.41 -10.2,0 -18.8,-2.71 -25.8,-8.11 -7,-5.41 -12.4,-13.07 -16.2,-22.99 -3.7,-9.92 -5.6,-21.61 -5.6,-35.07 z m -61.4,-198.06 v 311.24 h 61.9 v -38.03 h 2.8 c 2.7,6.09 6.7,12.31 12,18.64 5.2,6.34 12.1,11.64 20.6,15.92 8.5,4.28 19.1,6.41 31.8,6.41 16.5,0 31.7,-4.3 45.7,-12.89 13.9,-8.6 25.1,-21.52 33.4,-38.76 8.4,-17.25 12.6,-38.82 12.6,-64.76 0,-25.25 -4.1,-46.55 -12.2,-63.89 -8.1,-17.34 -19.1,-30.45 -33,-39.35 -13.9,-8.89 -29.5,-13.33 -46.7,-13.33 -12.1,0 -22.5,2.01 -31,6.03 -8.5,4.04 -15.4,9.12 -20.8,15.26 -5.4,6.14 -9.6,12.35 -12.4,18.64 h -1.9 v -121.13 h -62.8"
         style="fill:#196471;fill-opacity:1;fill-rule:nonzero;stroke:none"
         id="path102" /><path
         d="m 15030.9,1282.36 c 4.1,7.29 9.8,13.1 17.1,17.5 7.4,4.4 15.8,6.59 25.3,6.59 9.2,0 17.2,-1.99 24.1,-5.99 6.9,-4.01 12.4,-9.4 16.3,-16.4 3.9,-7 5.9,-15 5.9,-24 h -94.9 c 0.3,8.1 2.3,15.6 6.2,22.3 z m 147.8,-61.2 v 17.2 c 0,19.3 -2.7,36.1 -8.1,50.49 -5.4,14.41 -13,26.31 -22.6,35.9 -9.7,9.51 -21,16.6 -33.9,21.41 -13,4.8 -26.9,7.1 -41.8,7.1 -22.2,0 -41.6,-4.9 -58,-14.7 -16.5,-9.8 -29.2,-23.5 -38.2,-41.1 -9.1,-17.6 -13.6,-38 -13.6,-61.3 0,-23.91 4.5,-44.5 13.6,-62 9,-17.4 21.9,-30.9 38.6,-40.31 16.8,-9.49 36.8,-14.29 60.1,-14.29 18.7,0 35.1,2.9 49.4,8.6 14.3,5.79 26,13.8 35.1,24.2 9.1,10.4 15.1,22.5 18.1,36.49 l -58.1,3.81 c -2.2,-5.7 -5.3,-10.51 -9.4,-14.4 -4.2,-4 -9.1,-6.91 -14.9,-8.9 -5.8,-1.9 -12.2,-2.91 -19.2,-2.91 -10.5,0 -19.6,2.21 -27.2,6.6 -7.7,4.41 -13.6,10.71 -17.8,18.91 -4.2,8.1 -6.3,17.79 -6.3,29 v 0.2 h 154.2"
         style="fill:#196471;fill-opacity:1;fill-rule:nonzero;stroke:none"
         id="path104" /><path
         d="m 8151.71,2987.91 c 0,-33.61 -12.9,-62.71 -38.3,-86.6 -25.3,-23.8 -56.2,-35.9 -91.8,-35.9 -35.6,0 -66.6,12.1 -92.09,35.9 -25.61,23.89 -38.61,52.99 -38.61,86.6 0,33.19 13,62.19 38.61,86.09 25.49,23.8 56.29,35.9 91.49,35.9 36.01,0 67.1,-12.1 92.4,-36 25.4,-23.8 38.3,-52.8 38.3,-85.99"
         style="fill:#196470;fill-opacity:1;fill-rule:nonzero;stroke:none"
         id="path106" /><path
         d="m 8141.42,2767.66 v -845.51 h -241.7 v 845.51 h 241.7"
         style="fill:#196470;fill-opacity:1;fill-rule:nonzero;stroke:none"
         id="path108" /><path
         d="m 7466.21,2223.56 c -13.49,-33.91 -33.09,-60.2 -58.09,-78.3 -8.01,-5.7 -16.7,-10.61 -25.9,-14.5 -19.5,-8.3 -41.6,-12.5 -66.1,-12.5 -24.7,0 -46.91,4.1 -66.4,12.4 -9.61,3.99 -18.51,9.09 -26.7,15.1 -25,18.4 -44.4,44.9 -57.5,78.89 -13.3,34.2 -20.1,75.61 -20.1,123.01 0,46.7 6.7,88.4 19.8,123.9 5.2,13.99 11.39,26.9 18.6,38.5 10.8,17.6 23.9,32.5 39.1,44.4 15.79,12.4 34.1,20.9 54.59,25.6 2.31,0.49 4.71,1 7.11,1.39 10,1.81 20.49,2.71 31.5,2.71 36,0 67,-9.7 92.1,-28.9 15.7,-11.9 29.1,-27 40.3,-45.1 6.9,-11.1 12.9,-23.4 18,-36.7 13.4,-35.41 20.3,-77.7 20.3,-125.8 0,-48.1 -6.9,-89.8 -20.61,-124.1 z m 18.41,544.1 v -140.3 h -0.51 c -10.59,21.9 -25.49,44.4 -44.19,67 -3.8,4.59 -7.8,9 -12.1,13.3 -3.4,3.4 -6.91,6.8 -10.6,9.9 -15.8,14 -34.3,26.29 -55.3,36.8 -32.1,16.1 -72.4,24.2 -119.8,24.2 -61.9,0 -119.61,-16.2 -171.5,-48.1 -6.2,-3.8 -12.31,-7.9 -18.2,-12.1 -43.6,-31.7 -79.5,-76.11 -106.9,-132.5 -31,-63.8 -46.7,-144.41 -46.7,-239.3 0,-92.8 15.39,-170.7 45.9,-231.5 30.6,-61 72.5,-106.9 124.39,-136.5 47.41,-27 100.21,-41.7 157.41,-44 5.3,-0.3 10.7,-0.4 16.2,-0.4 h 2.2 c 14.19,0.1 27.8,0.8 40.8,2.29 27.1,2.91 51.6,8.91 73.1,17.71 32.39,13.2 59.3,30.59 80,51.7 17.3,17.5 31,36.2 41.1,55.7 1.5,2.8 2.9,5.69 4.19,8.6 h 1.61 v -147.91 c 0,-16.89 -1.61,-32.39 -5,-46.29 -6.8,-29.51 -20.9,-52.11 -42.2,-67.7 -21.5,-15.6 -47.31,-26.11 -76.91,-31.11 -14.1,-2.5 -29.1,-3.79 -45,-3.79 -18.59,0 -35.7,1.39 -51.19,4.1 -11.9,2.1 -22.81,5 -32.7,8.6 -1.4,0.5 -2.8,1 -4.1,1.6 -20.7,8.2 -37.6,18.5 -50.5,30.8 -13.6,13.1 -23.6,27.09 -29.81,41.6 l -1.49,3.5 -223.51,-30 1.21,-5.4 c 2,-9 4.59,-17.9 7.6,-26.6 4.8,-13.8 10.9,-27.2 18.3,-40.21 9.9,-17.59 22.19,-34.39 36.7,-50.19 31.99,-34.9 75.49,-63 129.49,-83.5 38.91,-14.8 83.91,-24.2 134.41,-28.3 19.3,-1.6 39.4,-2.4 60.19,-2.4 23.9,0 47.1,1.09 69.51,3.2 52.59,5.1 100.89,16.19 144.2,33 62,24.2 111.4,60.5 146.6,108 4.8,6.5 9.29,13.2 13.4,20.19 26.5,44.01 39.8,96.91 39.8,157.71 v 848.6 h -240.1"
         style="fill:#196470;fill-opacity:1;fill-rule:nonzero;stroke:none"
         id="path110" /></g></g></svg>
