<?xml version="1.0" encoding="UTF-8"?>
<svg id="Layer_1" xmlns="http://www.w3.org/2000/svg" width="497" height="96" version="1.1" viewBox="0 22 497 96">
  <!-- Generator: Adobe Illustrator 30.2.1, SVG Export Plug-In . SVG Version: 2.1.1 Build 1)  -->
  <polygon points="510.8688618 106.6999969 510.6688496 106.8000031 511.068874 106.8000031 510.8688618 106.6999969" fill="#131719"/>
  <path d="M154.768871,42.7000008c-1.6000061.0999985-3.1999969.4000015-4.8000031.9000015s-3,1.2000008-4.3000031,2c-1.5.9000015-2.8000031,2.0999985-3.8999939,3.5-.5.7000008-.8999939,1.2999992-1.3000031,2v-8.3999977h-10.3000031v52.2000046h11.6999969v-26.5c0-2,.1999969-3.9000015.6999969-5.5999985.5-1.7000008,1.1999969-3.2999992,2.1999969-4.5999985,1-1.4000015,2.3000031-2.5,3.8999939-3.2999992,1.6000061-1,3.3999939-1.5,5.3999939-1.7000008s3.8000031,0,5.3000031.4000015v-10.9000015c-1.5-.2999992-3.1000061-.2999992-4.8000031-.2000008h0l.2000275.1999893Z" fill="#131719"/>
  <path d="M202.1688801,45.2999992c-3.8000031-2.5-8.3999939-3.7999992-13.8000031-3.7999992s-9.6000061,1.2000008-13.5,3.5-7,5.5999985-9.1000061,9.7999992c-2.1999969,4.2000008-3.3000031,9.2000008-3.3000031,14.8999977s1.1000061,10,3.3999939,14,5.3999939,7.1999969,9.3000031,9.5c4,2.3000031,8.6000061,3.4000015,13.8999939,3.4000015s9.6000061-1.3000031,13.8000031-3.9000015,7.3000031-6.3000031,9.3000031-11l-11.5-3.5c-1.1000061,2.4000015-2.6999969,4.3000031-4.8000031,5.5-2.1000061,1.3000031-4.5,1.9000015-7.3999939,1.9000015-4.5,0-7.8000031-1.5-10.1999969-4.3000031-1.8000031-2.3000031-2.8999939-5.3000031-3.3000031-9h37.8000031c.5-6.1999969-.1999969-11.7000008-2.1000061-16.2999992s-4.6999969-8.2000008-8.3999939-10.7000008h0l-.0999908.0000038ZM175.1688801,63.5c.5-3,1.5-5.5,3-7.4000015,2.3000031-3,5.8999939-4.4000015,10.6000061-4.4000015s7.3000031,1.2999992,9.3000031,3.9000015c1.3999939,1.7999992,2.3000031,4.5,2.6999969,7.9000015h-25.6999969.0999908Z" fill="#131719"/>
  <path d="M293.1688801,28.5h-11.6000061v14.5h-9.5v9.0999985h18l-8.6000061,7.5999985v22.0999985c0,2.4000015.7000122,4.6999969,1.8999939,6.9000015,1.2999878,2.5,3.2999878,4.3000031,6,5.4000015,2.6000061,1.1999969,5.6000061,1.8000031,8.8999939,1.8000031s6.7000122-.1999969,10.1000061-.8000031v-9.8000031c-3.2000122.5-6.2000122.5999985-8.7000122.4000015s-4.3999939-1.3000031-5.6000061-3.1999969c-.6000061-1-.8999939-2.3000031-1-3.9000015s0-3.4000015,0-5.5v-21.0999985h15.2999878v-9.0999985h-15.2999878v-14.5h0l.1000366.0999985Z" fill="#131719"/>
  <path d="M266.8688618,54.7000008c-.7000122-2.2999992-1.7999878-4.4000015-3.2999878-6.4000015s-3.5-3.5999985-6-4.9000015c-2.5-1.2999992-5.7000122-1.9000015-9.6000061-1.9000015s-9,1.0999985-12.3999939,3.2000008c-1.7999878,1.2000008-3.3999939,2.5-4.6999969,4.0999985h0v-5.7999992h-10.3999939v52.2000008h11.8000031v-26.8000031c0-3.1999969.2999878-5.7999992,1.1000061-7.9000015.7000122-2,1.7000122-3.7000008,2.7999878-4.7999992,1.2000122-1.2000008,2.5-2,3.8999939-2.5,1.5-.5,2.8999939-.7000008,4.3999939-.7000008,2.7999878,0,5,.5999985,6.6000061,1.7999992s2.7999878,2.7000008,3.7000122,4.5999985,1.2999878,3.7999992,1.6000061,5.7999992.2999878,3.8000031.2999878,5.5v25.0999985h11.7999878v-29.1999969c0-1.3000031,0-2.9000015-.2999878-4.9000015-.2000122-2-.7000122-4.2000008-1.3999939-6.4000015h0l.0999756-.099987Z" fill="#131719"/>
  <path d="M357.7688862,51.2000008c-1.7000122-3.5-4.2999878-5.9000015-7.8999939-7.5-3.5-1.5-7.6000061-2.2999992-12.2000122-2.2999992s-11.1000061,1.2999992-14.7000122,4-6.1000061,6.2000008-7.3999939,10.5999985l10.6000061,3.2999992c.8999939-2.7000008,2.3999939-4.5999985,4.6000061-5.7000008,2.2000122-1.0999985,4.5-1.7000008,6.7999878-1.7000008,3.8999939,0,6.7000122.9000015,8.2999878,2.5999985,1.3999939,1.4000015,2.2000122,3.5,2.3999939,6.2000008-2.1000061.2999992-4.2000122.5999985-6.2000122.9000015-3.2999878.5-6.3999939,1-9.2000122,1.5-2.7999878.5-5.2999878,1.1999969-7.3999939,1.8000031-2.7999878.9000015-5,2.0999985-6.7999878,3.5999985-1.7000122,1.5-3,3.1999969-3.8999939,5.1999969-.7999878,2-1.2000122,4.3000031-1.2000122,6.8000031s.7000122,5.5,2,7.9000015,3.2999878,4.3000031,5.8999939,5.6999969c2.6000061,1.4000015,5.7999878,2.1999969,9.6000061,2.1999969s8.6000061-.9000015,11.7999878-2.5999985c2.3999939-1.4000015,4.6000061-3.3000031,6.6000061-5.8000031v7h10.2000122v-32c0-2.2999992,0-4.2999992-.2999878-6.2999992s-.7999878-3.7999992-1.7000122-5.5999985h0l.1000366.2000046ZM348.068874,73.5999985c0,1.9000015-.3999939,3.5999985-1,5.0999985-.3999939,1.1999969-1.1000061,2.5-2.2000122,3.8000031s-2.6000061,2.5-4.5,3.4000015-4.1000061,1.4000015-6.7999878,1.4000015-3.3999939-.3000031-4.6000061-.9000015-2.2000122-1.4000015-2.7999878-2.3000031c-.6000061-1-1-2.0999985-1-3.4000015s.2000122-2.0999985.7999878-3c.5-.8000031,1.2000122-1.5999985,2.2000122-2.1999969.8999939-.5999985,2.1000061-1.1999969,3.3999939-1.6999969,1.3999939-.5,3-.9000015,4.7999878-1.1999969,1.7999878-.4000015,4-.8000031,6.5-1.1999969,1.6000061-.3000031,3.3999939-.5999985,5.3999939-.9000015v3h0l-.1999817.0999908Z" fill="#131719"/>
  <path d="M407.2688862,45.0999985c-3.6000061-2.4000015-7.8999939-3.5999985-12.7999878-3.5999985s-9.1000061,1.2000008-12.5,3.5999985c-.2000122.0999985-.2999878.2000008-.5.4000015v-19.8999996h-11.7999878v69.5999966h10.2999878v-3.8000031c.7000122.5999985,1.2999878,1.1999969,2.1000061,1.6999969,3.3999939,2.4000015,7.7000122,3.5999985,12.7999878,3.5999985s9-1.1999969,12.6000061-3.5999985,6.2999878-5.6999969,8.2999878-9.9000015c2-4.1999969,2.8999939-8.8000031,2.8999939-14.0999985s-1-10-3-14.0999985-4.7999878-7.4000015-8.3999939-9.7999992h0v-.0999947ZM404.9688679,77.6999969c-.8999939,2.5999985-2.3999939,4.6999969-4.3999939,6.1999969s-4.5,2.3000031-7.5,2.3000031-5.7000122-.6999969-7.6000061-2.1999969c-1.8999939-1.4000015-3.2999878-3.4000015-4.2000122-6-.8999939-2.5999985-1.2999878-5.5999985-1.2999878-8.9000015s.3999939-6.4000015,1.2999878-9,2.2999878-4.5999985,4.1000061-6,4.2999878-2.2000008,7.2000122-2.2000008,5.7000122.7999992,7.7000122,2.2999992,3.5,3.5999985,4.5,6.2000008c1,2.5999985,1.3999939,5.4999962,1.3999939,8.6000023s-.5,6.0999985-1.3999939,8.6999969h.1999817Z" fill="#131719"/>
  <rect x="426.8688618" y="24.1000004" width="11.7000122" height="71.0999966" fill="#131719"/>
  <polygon points="470.8688618 80.3000031 456.2688862 43 444.1688801 43 465.2688862 94.8000031 456.6688801 118.4000015 467.568874 118.4000015 496.6688496 43 485.068874 43 470.8688618 80.3000031" fill="#131719"/>
  <polygon points="28.7688748 40.2999992 .568874 56.5999985 .568874 106.8000031 28.7688748 90.9000015 28.7688748 40.5 61.068874 59.2999992 61.068874 106.6999969 89.3688771 90.8000031 89.3688771 43.9000015 55.6688725 24.3999996 28.7688748 40.2999992" fill="#008cff"/>
  <polygon points="39.8688732 95.4000015 47.4688755 99.6999969 47.4688755 86.4000015 39.8688732 81.8000031 39.8688732 95.4000015" fill="#008cff"/>
</svg>