<?xml version="1.0" encoding="UTF-8"?>
<svg id="Layer_1" xmlns="http://www.w3.org/2000/svg" version="1.1" viewBox="0 0 544.2 142.3">
  <!-- Generator: Adobe Illustrator 30.1.0, SVG Export Plug-In . SVG Version: 2.1.1 Build 136)  -->
  <defs>
    <style>
      .st0 {
        fill: #008cff;
      }

      .st1 {
        fill: #131719;
      }
    </style>
  </defs>
  <polygon class="st1" points="534.3 106.7 534.1 106.8 534.5 106.8 534.3 106.7"/>
  <path class="st1" d="M178.2,42.7c-1.6.1-3.2.4-4.8.9-1.6.5-3,1.2-4.3,2-1.5.9-2.8,2.1-3.9,3.5-.5.7-.9,1.3-1.3,2v-8.4h-10.3v52.2h11.7v-26.5c0-2,.2-3.9.7-5.6.5-1.7,1.2-3.3,2.2-4.6,1-1.4,2.3-2.5,3.9-3.3,1.6-1,3.4-1.5,5.4-1.7s3.8,0,5.3.4v-10.9c-1.5-.3-3.1-.3-4.8-.2h0Z"/>
  <path class="st1" d="M225.6,45.3c-3.8-2.5-8.4-3.8-13.8-3.8s-9.6,1.2-13.5,3.5c-3.9,2.3-7,5.6-9.1,9.8-2.2,4.2-3.3,9.2-3.3,14.9s1.1,10,3.4,14,5.4,7.2,9.3,9.5c4,2.3,8.6,3.4,13.9,3.4s9.6-1.3,13.8-3.9c4.2-2.6,7.3-6.3,9.3-11l-11.5-3.5c-1.1,2.4-2.7,4.3-4.8,5.5-2.1,1.3-4.5,1.9-7.4,1.9-4.5,0-7.8-1.5-10.2-4.3-1.8-2.3-2.9-5.3-3.3-9h37.8c.5-6.2-.2-11.7-2.1-16.3s-4.7-8.2-8.4-10.7h0ZM198.6,63.5c.5-3,1.5-5.5,3-7.4,2.3-3,5.9-4.4,10.6-4.4s7.3,1.3,9.3,3.9c1.4,1.8,2.3,4.5,2.7,7.9h-25.7Z"/>
  <path class="st1" d="M316.6,28.5h-11.6v14.5h-9.5v9.1h18l-8.6,7.6v14.1c0,3,0,5.6,0,8,0,2.4.7,4.7,1.9,6.9,1.3,2.5,3.3,4.3,6,5.4,2.6,1.2,5.6,1.8,8.9,1.8s6.7-.2,10.1-.8v-9.8c-3.2.5-6.2.6-8.7.4-2.5-.2-4.4-1.3-5.6-3.2-.6-1-.9-2.3-1-3.9s0-3.4,0-5.5v-21.1h15.3v-9.1h-15.3v-14.5h0Z"/>
  <path class="st1" d="M290.3,54.7c-.7-2.3-1.8-4.4-3.3-6.4-1.5-2-3.5-3.6-6-4.9-2.5-1.3-5.7-1.9-9.6-1.9s-9,1.1-12.4,3.2c-1.8,1.2-3.4,2.5-4.7,4.1h0v-5.8h-10.4v52.2h11.8v-26.8c0-3.2.3-5.8,1.1-7.9.7-2,1.7-3.7,2.8-4.8,1.2-1.2,2.5-2,3.9-2.5,1.5-.5,2.9-.7,4.4-.7,2.8,0,5,.6,6.6,1.8,1.6,1.2,2.8,2.7,3.7,4.6s1.3,3.8,1.6,5.8.3,3.8.3,5.5v25.1h11.8v-29.2c0-1.3,0-2.9-.3-4.9-.2-2-.7-4.2-1.4-6.4h0Z"/>
  <path class="st1" d="M381.2,51.2c-1.7-3.5-4.3-5.9-7.9-7.5-3.5-1.5-7.6-2.3-12.2-2.3s-11.1,1.3-14.7,4c-3.6,2.7-6.1,6.2-7.4,10.6l10.6,3.3c.9-2.7,2.4-4.6,4.6-5.7,2.2-1.1,4.5-1.7,6.8-1.7,3.9,0,6.7.9,8.3,2.6,1.4,1.4,2.2,3.5,2.4,6.2-2.1.3-4.2.6-6.2.9-3.3.5-6.4,1-9.2,1.5-2.8.5-5.3,1.2-7.4,1.8-2.8.9-5,2.1-6.8,3.6-1.7,1.5-3,3.2-3.9,5.2-.8,2-1.2,4.3-1.2,6.8s.7,5.5,2,7.9c1.3,2.4,3.3,4.3,5.9,5.7,2.6,1.4,5.8,2.2,9.6,2.2s8.6-.9,11.8-2.6c2.4-1.4,4.6-3.3,6.6-5.8v7h10.2v-32c0-2.3,0-4.3-.3-6.3s-.8-3.8-1.7-5.6h0ZM371.5,73.6c0,1.9-.4,3.6-1,5.1-.4,1.2-1.1,2.5-2.2,3.8-1.1,1.3-2.6,2.5-4.5,3.4-1.9.9-4.1,1.4-6.8,1.4s-3.4-.3-4.6-.9-2.2-1.4-2.8-2.3c-.6-1-1-2.1-1-3.4s.2-2.1.8-3c.5-.8,1.2-1.6,2.2-2.2.9-.6,2.1-1.2,3.4-1.7,1.4-.5,3-.9,4.8-1.2,1.8-.4,4-.8,6.5-1.2,1.6-.3,3.4-.6,5.4-.9,0,.9,0,1.9,0,3h0Z"/>
  <path class="st1" d="M430.7,45.1c-3.6-2.4-7.9-3.6-12.8-3.6s-9.1,1.2-12.5,3.6c-.2.1-.3.2-.5.4v-19.9h-11.8v69.6h10.3v-3.8c.7.6,1.3,1.2,2.1,1.7,3.4,2.4,7.7,3.6,12.8,3.6s9-1.2,12.6-3.6c3.6-2.4,6.3-5.7,8.3-9.9,2-4.2,2.9-8.8,2.9-14.1s-1-10-3-14.1-4.8-7.4-8.4-9.8h0ZM428.4,77.7c-.9,2.6-2.4,4.7-4.4,6.2-2,1.5-4.5,2.3-7.5,2.3s-5.7-.7-7.6-2.2c-1.9-1.4-3.3-3.4-4.2-6-.9-2.6-1.3-5.6-1.3-8.9s.4-6.4,1.3-9c.9-2.6,2.3-4.6,4.1-6s4.3-2.2,7.2-2.2,5.7.8,7.7,2.3c2,1.5,3.5,3.6,4.5,6.2,1,2.6,1.4,5.5,1.4,8.6s-.5,6.1-1.4,8.7h0Z"/>
  <rect class="st1" x="450.3" y="24.1" width="11.7" height="71.1"/>
  <polygon class="st1" points="494.3 80.3 479.7 43 467.6 43 488.7 94.8 480.1 118.4 491 118.4 520.1 43 508.5 43 494.3 80.3"/>
  <polygon class="st0" points="52.2 40.3 24 56.6 24 106.8 52.2 90.9 52.2 40.5 84.5 59.3 84.5 106.7 112.8 90.8 112.8 43.9 79.1 24.4 52.2 40.3"/>
  <polygon class="st0" points="63.3 95.4 70.9 99.7 70.9 86.4 63.3 81.8 63.3 95.4"/>
</svg>